Patient4_TMGait_0pt6_01_right_01_GRF.mot
version=1
nRows=39
nColumns=19
inDegrees=no
endheader
time	F1x	F1y	F1z	M1x	M1y	M1z	F2x	F2y	F2z	M2x	M2y	M2z	EC1x	EC1y	EC1z	EC2x	EC2y	EC2z
0.59	11.8649	711.4988	55.2991	-248.3847	-38.3475	561.089	-7.1516	0.24535	3.5549	-0.53401	1.1645	-2.5731	-0.0592	0.0182	-0.0073	-0.0462	0.0165	0.9585
0.60214	14.8579	709.0337	54.1439	-247.553	-35.9044	556.453	-4.803	1.133	2.2379	0.085579	0.98018	-0.8081	-0.0592	0.0182	-0.0073	-0.0462	0.0165	0.9585
0.61429	17.8536	707.7648	53.2815	-247.0654	-33.6617	552.2847	-2.812	1.9112	1.173	0.6045	0.7445	0.68361	-0.0592	0.0182	-0.0073	-0.0462	0.0165	0.9585
0.62643	20.679	708.2134	52.7942	-247.0927	-31.77	549.1044	-1.2994	2.5422	0.39573	1.0063	0.51402	1.8328	-0.0592	0.0182	-0.0073	-0.0462	0.0165	0.9585
0.63857	23.2506	710.563	52.7257	-247.7016	-30.3083	547.1587	-0.27638	3.0384	-0.11937	1.2996	0.32777	2.6797	-0.0592	0.0182	-0.0073	-0.0462	0.0165	0.9585
0.65071	25.5564	714.6916	53.0404	-248.8589	-29.2541	546.4275	0.32718	3.3937	-0.41662	1.4942	0.19589	3.2396	-0.0592	0.0182	-0.0073	-0.0462	0.0165	0.9585
0.66286	27.6318	720.2639	53.6854	-250.4596	-28.5518	546.7001	0.58562	3.61	-0.56109	1.6009	0.13408	3.5598	-0.0592	0.0182	-0.0073	-0.0462	0.0165	0.9585
0.675	29.5382	726.8116	54.5759	-252.352	-28.1068	547.6588	0.60459	3.6524	-0.60329	1.6157	0.13065	3.6455	-0.0592	0.0182	-0.0073	-0.0462	0.0165	0.9585
0.68714	31.3322	733.7885	55.6485	-254.3521	-27.8468	548.9331	0.45126	3.4678	-0.58807	1.5218	0.17773	3.496	-0.0592	0.0182	-0.0073	-0.0462	0.0165	0.9585
0.69929	33.0492	740.6291	56.8317	-256.2642	-27.6995	550.1403	0.21664	2.9609	-0.54215	1.2853	0.25183	3.0276	-0.0592	0.0182	-0.0073	-0.0462	0.0165	0.9585
0.71143	34.708	746.8216	58.0662	-257.9079	-27.6152	550.9505	-0.048356	2.0289	-0.48348	0.86471	0.33302	2.1471	-0.0592	0.0182	-0.0073	-0.0462	0.0165	0.9585
0.72357	36.3052	751.9553	59.2812	-259.1384	-27.5439	551.1182	-0.26287	0.56513	-0.42177	0.21724	0.3909	0.74497	-0.0592	0.0182	-0.0073	-0.0462	0.0165	0.9585
0.73571	37.8318	755.7105	60.4182	-259.8421	-27.4529	550.4781	-0.36685	-1.5023	-0.35833	-0.68656	0.39428	-1.243	-0.0592	0.0182	-0.0073	-0.0462	0.0165	0.9585
0.74786	39.2829	757.8173	61.4286	-259.9207	-27.3182	548.8862	-0.266	-4.1662	-0.28783	-1.8407	0.29741	-3.8202	-0.0592	0.0182	-0.0073	-0.0462	0.0165	0.9585
0.76	40.6642	758.005	62.278	-259.2703	-27.1224	546.1847	0.14528	-7.2421	-0.19166	-3.1665	0.035806	-6.8122	-0.0592	0.0182	-0.0073	-0.0462	0.0165	0.9585
0.77214	41.971	755.9676	62.9601	-257.773	-26.873	542.1807	0.992	-10.2905	-0.051405	-4.4724	-0.46411	-9.8076	-0.0592	0.0182	-0.0073	-0.0462	0.0165	0.9585
0.78429	43.2049	751.4818	63.4712	-255.3373	-26.5738	536.7297	2.3951	-12.4982	0.15092	-5.4041	-1.2669	-12.0279	-0.0592	0.0182	-0.0073	-0.0462	0.0165	0.9585
0.79643	44.3928	744.5358	63.825	-251.9506	-26.2279	529.8133	4.4356	-12.5739	0.42229	-5.3989	-2.4106	-12.2215	-0.0592	0.0182	-0.0073	-0.0462	0.0165	0.9585
0.80857	45.5822	735.3845	64.0131	-247.7032	-25.8104	521.5902	7.1225	-8.6732	0.7604	-3.6567	-3.8891	-8.6038	-0.0592	0.0182	-0.0073	-0.0462	0.0165	0.9585
0.82071	46.854	724.4194	64.0428	-242.7481	-25.3027	512.3007	10.2951	1.5867	1.1355	0.85382	-5.5942	1.1342	-0.0592	0.0182	-0.0073	-0.0462	0.0165	0.9585
0.83286	48.2873	711.9921	63.8736	-237.2431	-24.6533	502.1532	13.5434	20.9555	1.481	9.3236	-7.2684	19.6544	-0.0592	0.0182	-0.0073	-0.0462	0.0165	0.9585
0.845	49.9573	698.1785	63.422	-231.2711	-23.7898	491.1525	16.075	52.1756	1.6759	22.9332	-8.4367	49.6388	-0.0592	0.0182	-0.0073	-0.0462	0.0165	0.9585
0.85714	51.8633	682.5684	62.5019	-224.7699	-22.5842	478.9795	16.6389	97.2686	1.5304	42.5486	-8.3609	93.0816	-0.0592	0.0182	-0.0073	-0.0462	0.0165	0.9585
0.86929	53.906	664.1275	60.8803	-217.4758	-20.9102	464.8907	13.6329	156.5914	0.87712	68.3016	-6.1839	150.3994	-0.0592	0.0182	-0.0073	-0.0462	0.0165	0.9585
0.88143	55.8202	641.2205	58.2971	-208.9218	-18.6676	447.7606	5.7007	227.7107	-0.51235	99.1056	-1.1197	219.29	-0.0592	0.0182	-0.0073	-0.0462	0.0165	0.9585
0.89357	57.1918	611.9219	54.6007	-198.5285	-15.8828	426.3007	-6.844	304.8275	-2.9798	132.3946	6.9897	294.1612	-0.0592	0.0182	-0.0073	-0.0462	0.0165	0.9585
0.90571	57.511	574.5429	49.7872	-185.7724	-12.7138	399.4004	-21.5044	379.6149	-7.055	164.5328	17.5445	366.7807	-0.0592	0.0182	-0.0073	-0.0462	0.0165	0.9585
0.91786	56.2794	528.2688	44.0536	-170.382	-9.4563	366.5604	-35.7112	444.9885	-12.7109	192.4484	29.3431	429.9812	-0.0592	0.0182	-0.0073	-0.0462	0.0165	0.9585
0.93	53.1795	473.5675	37.7842	-152.4677	-6.4681	328.1363	-47.6973	497.8188	-19.3073	214.8133	40.9623	480.4266	-0.0592	0.0182	-0.0073	-0.0462	0.0165	0.9585
0.94214	48.1394	412.1873	31.4496	-132.5366	-4.0805	285.3384	-56.6788	538.7619	-26.0119	231.9555	51.2286	518.6624	-0.0592	0.0182	-0.0073	-0.0462	0.0165	0.9585
0.95429	41.3416	346.9044	25.454	-111.4286	-2.4967	240.0514	-62.5378	570.6456	-32.0911	245.1549	59.3917	547.4057	-0.0592	0.0182	-0.0073	-0.0462	0.0165	0.9585
0.96643	33.1954	281.1402	20.0726	-90.2042	-1.7607	194.6017	-65.6437	596.9774	-37.1372	255.9618	65.2372	570.0897	-0.0592	0.0182	-0.0073	-0.0462	0.0165	0.9585
0.97857	24.363	218.4572	15.4557	-69.9893	-1.7555	151.3787	-66.4962	620.8553	-41.0444	265.7294	68.9247	589.7175	-0.0592	0.0182	-0.0073	-0.0462	0.0165	0.9585
0.99071	15.684	161.9835	11.6322	-51.7869	-2.2149	112.4784	-65.744	644.5143	-44.0533	275.3958	70.999	608.5424	-0.0592	0.0182	-0.0073	-0.0462	0.0165	0.9585
1.0029	8.0218	113.795	8.5571	-36.2718	-2.8191	79.2543	-63.996	668.9804	-46.4985	285.3645	72.0728	627.6839	-0.0592	0.0182	-0.0073	-0.0462	0.0165	0.9585
1.015	1.9602	74.7662	6.1169	-23.7312	-3.2918	52.2877	-61.8434	694.1262	-48.7468	295.535	72.7622	647.2292	-0.0592	0.0182	-0.0073	-0.0462	0.0165	0.9585
1.0271	-2.223	44.7468	4.1987	-14.1162	-3.4696	31.4646	-59.7556	718.9625	-50.9856	305.4539	73.4564	666.4239	-0.0592	0.0182	-0.0073	-0.0462	0.0165	0.9585
1.0393	-4.5702	22.9523	2.6943	-7.1643	-3.2971	16.2939	-58.063	742.1437	-53.3002	314.5223	74.3781	684.1664	-0.0592	0.0182	-0.0073	-0.0462	0.0165	0.9585
1.0514	-5.322	8.2339	1.5257	-2.495	-2.8077	5.9991	-56.8503	762.3211	-55.5432	322.1657	75.4319	699.2876	-0.0592	0.0182	-0.0073	-0.0462	0.0165	0.9585
